<svg xmlns="http://www.w3.org/2000/svg" xmlns:xlink="http://www.w3.org/1999/xlink" width="226" height="226" preserveAspectRatio="xMidYMid meet"><defs><path id="bW5mk5s7K" d="m1.42,95.76c-1.9,12.2 -1.9,21.1 0,33.4c7.1,47.1 42.11,84 89.01,93.8c10.2,2.1 32.8,2.6 41.7,0.9c8.1,-1.6 20.8,-5.2 20.8,-5.9c0,-0.3 -2.4,-2 -5.4,-3.8c-6.8,-4.1 -18.4,-14.9 -24.2,-22.5c-25.6,-33.2 -24.7,-81.9 2.1,-114.6c3.3,-4 7.9,-10.1 10.1,-13.4c8.5,-12.3 17.5,-19.5 31.7,-25.4c0.54,-0.22 3.28,-1.36 8.2,-3.4c-6.3,0.36 -9.8,0.56 -10.5,0.6c-10.8,0.6 -40.2,-1 -45.4,-2.4c-4.8,-1.3 -4,-2.8 2.1,-4.1c8.4,-1.7 41.8,-2.5 55.3,-1.3c6.3,0.6 11.6,0.9 11.8,0.8c0.2,-0.2 -3.1,-2.9 -7.3,-6c-14.4,-10.9 -31,-18.2 -47.9,-21.2c-10.1,-1.7 -32.7,-1.7 -41.9,0.1c-47.3,9.4 -83.11,46.9 -90.21,94.4zm35.81,-5.3c-5.2,0 -8.5,1.7 -10.6,5.4c-2.3,3.8 -2.2,4.1 1.3,2.3c6.3,-3.1 11.99,0.7 11.99,8c0,8.4 -5.59,14.7 -13.09,14.7c-8.1,0 -12.1,-7.4 -9.91,-18c2.6,-12.2 10.21,-19.4 20,-18.8c4.31,0.3 4.51,0.5 4.51,3.3c0,2.8 -0.2,3 -4.2,3.1zm28.7,8.6c-0.2,0.2 -1.2,1.2 -3,3c1.2,1.5 1.86,2.34 2,2.5c2.4,3.1 2.6,8 0.4,11.1c-6,8.6 -22.4,5.8 -22.4,-3.8c0,-3.2 2.5,-7.4 5.4,-9c2.4,-1.3 2.5,-1.5 1.1,-3.6c-1.7,-2.7 -2,-7.7 -0.5,-10.4c2.4,-4.5 10.5,-6.3 15.9,-3.5c5.2,2.6 5.7,9.1 1.1,13.7zm19,12.5c-5.4,9.1 -5.6,9.3 -9.21,9.3c-2.09,0 -3.79,-0.5 -3.79,-1c0,-0.6 3.79,-7.2 8.4,-14.8c0.56,-0.91 3.4,-5.48 8.5,-13.7c-4.5,-0.18 -7,-0.28 -7.5,-0.3c-7.61,-0.3 -8.3,-0.8 -6.8,-4.6c0.5,-1.3 2.6,-1.6 12.5,-1.6c9,0 11.9,0.3 11.9,1.3c0,1.2 -3.2,7.1 -14,25.4z"/><path id="k1OOcUepPL" d="m25.43,113.86c1.99,1.7 6.1,-0.9 6.7,-4.3c1.1,-5.7 -3,-8.8 -6.5,-4.9c-2.1,2.3 -2.21,7.5 -0.2,9.2z"/><path id="b1KDhKCYuc" d="m57.73,97.86c4.9,0 5.7,-7.3 1,-7.8c-2.2,-0.3 -2.9,0.2 -3.4,2.2c-0.8,3.4 0.1,5.6 2.4,5.6z"/><path id="a3VolyaQXI" d="m55.03,114.86c4.1,0 5.9,-3.8 3.5,-7.5c-1.8,-2.8 -2.3,-2.9 -4.9,-1.4c-4.7,2.7 -3.7,8.9 1.4,8.9z"/><path id="eZ0PM4Zmm" d="m169.43,63.56c-0.05,0.36 -0.28,2.12 -0.7,5.3l14.1,0l14.1,0c0,-9.6 0,-14.93 0,-16c0,-17.7 0.4,-16.9 -6.9,-14.4c-12.4,4.4 -18.9,12.3 -20.6,25.1z"/><path id="i6JKZgl9y" d="m146.13,57.26c-4.2,3.9 -8.81,10.3 -8.11,11.1c0.71,0.6 3.41,0.7 15,0.6c0.78,0 4.64,-0.04 11.61,-0.1c0.42,-3.06 0.65,-4.76 0.7,-5.1c1,-7.8 4.2,-15.2 8.7,-20.3c2.2,-2.5 3.9,-4.6 3.7,-4.6c-0.1,0.1 -2.5,0.9 -5.3,1.9c-10.4,3.8 -17.51,8.2 -26.3,16.5z"/><path id="b2jPdnCvAI" d="m201.93,68.86c4.5,0 7,0 7.5,0c5.1,0 7.5,-0.4 7.5,-1.2c0,-1.6 -9.6,-18.6 -12.5,-22.3c-0.17,-0.2 -1,-1.2 -2.5,-3l0,13.2l0,13.3z"/><path id="m6whDTKvtp" d="m204.93,125.76c-28.44,0.18 -44.24,0.28 -47.4,0.3c-26.1,0.2 -47.8,0.7 -48.3,1.1c-0.41,0.5 -0.7,5.5 -0.7,11c0.29,20.9 8.4,41.1 23.29,57.8c4.7,5.3 16.7,14.7 22.81,17.9c0.27,0.14 1.63,0.84 4.1,2.1l4.3,-2.1l4.2,-2.2c-4.75,-2.52 -7.38,-3.92 -7.91,-4.2c-10.3,-5.3 -17,-10.3 -23.5,-17.4c-4.59,-5.1 -9.89,-12.3 -9.89,-13.7c0,-0.2 18.3,-0.6 40.7,-0.7c2.7,-0.02 16.23,-0.12 40.6,-0.3c2.82,-4.92 4.38,-7.65 4.7,-8.2c5.3,-9.2 11.5,-26.8 12.5,-35.6c0.04,-0.38 0.28,-2.28 0.7,-5.7l-4.5,0l-4.6,0c-0.85,-3.18 -1.31,-4.94 -1.4,-5.3c-0.9,-2.8 -1.8,-6.7 -2.2,-8.4c-0.4,-1.8 -1,-3.5 -1.4,-3.7c-0.4,-0.3 -2,3.5 -3.4,8.4c-0.36,1.19 -1.26,4.16 -2.7,8.9zm-48.11,34.6c-4.8,2.5 -8.69,1.9 -12.5,-1.9c-3.8,-3.8 -4.3,-7 -1.8,-11.7c2.91,-5.6 9.91,-7 15.4,-3c5.4,3.9 4.81,13.6 -1.1,16.6z"/><path id="exz9SRVCS" d="m162.53,204.46c0.63,0.32 3.8,1.88 9.5,4.7c3.42,-2.34 5.31,-3.64 5.7,-3.9c6,-4.1 25.2,-22.6 25.2,-24.4c0,-0.7 -11.7,-1 -35.1,-1c-2.35,0 -14.09,0 -35.2,0l3.5,4.2c11.06,10.34 19.86,17.14 26.4,20.4z"/></defs><g><title>Layer 1</title><g id="svg_1"><g id="svg_2"><g id="svg_3"><use id="svg_4" x=".005" y=".003" fill="#fff" xlink:href="#bW5mk5s7K"/><g id="svg_5"><use id="svg_6" x=".005" y=".003" fill-opacity="0" stroke="#000" stroke-opacity="0" xlink:href="#bW5mk5s7K"/></g></g><g id="svg_7"><use id="svg_8" x=".005" y=".003" fill="#fff" xlink:href="#k1OOcUepPL"/><g id="svg_9"><use id="svg_10" x=".005" y=".003" fill-opacity="0" stroke="#000" stroke-opacity="0" xlink:href="#k1OOcUepPL"/></g></g><g id="svg_11"><use id="svg_12" x=".005" y=".003" fill="#fff" xlink:href="#b1KDhKCYuc"/><g id="svg_13"><use id="svg_14" x=".005" y=".003" fill-opacity="0" stroke="#000" stroke-opacity="0" xlink:href="#b1KDhKCYuc"/></g></g><g id="svg_15"><use id="svg_16" x=".005" y=".003" fill="#fff" xlink:href="#a3VolyaQXI"/><g id="svg_17"><use id="svg_18" x=".005" y=".003" fill-opacity="0" stroke="#000" stroke-opacity="0" xlink:href="#a3VolyaQXI"/></g></g><g id="svg_19"><use id="svg_20" x=".005" y=".003" fill="#fff" xlink:href="#eZ0PM4Zmm"/><g id="svg_21"><use id="svg_22" x=".005" y=".003" fill-opacity="0" stroke="#000" stroke-opacity="0" xlink:href="#eZ0PM4Zmm"/></g></g><g id="svg_23"><use id="svg_24" x=".005" y=".003" fill="#fff" xlink:href="#i6JKZgl9y"/><g id="svg_25"><use id="svg_26" x=".005" y=".003" fill-opacity="0" stroke="#000" stroke-opacity="0" xlink:href="#i6JKZgl9y"/></g></g><g id="svg_27"><use id="svg_28" x=".005" y=".003" fill="#fff" xlink:href="#b2jPdnCvAI"/><g id="svg_29"><use id="svg_30" x=".005" y=".003" fill-opacity="0" stroke="#000" stroke-opacity="0" xlink:href="#b2jPdnCvAI"/></g></g><g id="svg_31"><use id="svg_32" x=".005" y=".003" fill="#fff" xlink:href="#m6whDTKvtp"/><g id="svg_33"><use id="svg_34" x=".005" y=".003" fill-opacity="0" stroke="#000" stroke-opacity="0" xlink:href="#m6whDTKvtp"/></g></g><g id="svg_35"><use id="svg_36" x=".005" y=".003" fill="#fff" xlink:href="#exz9SRVCS"/><g id="svg_37"><use id="svg_38" x=".005" y=".003" fill-opacity="0" stroke="#000" stroke-opacity="0" xlink:href="#exz9SRVCS"/></g></g></g></g></g></svg>