<svg xmlns="http://www.w3.org/2000/svg" width="225" height="225"><g><title>Layer 1</title><g id="svg_1" fill="#000" transform="matrix(0.1 0 0 -0.1 25.5111 267.633)"><path id="svg_2" fill="#081535" d="m661.139,2662.70231c-473,-94 -831,-469 -902,-944c-19,-122 -19,-211 0,-334c71,-471 421,-840 890,-938c102,-21 328,-26 417,-9c81,16 208,52 208,59c0,3 -24,20 -54,38c-68,41 -184,149 -242,225c-256,332 -247,819 21,1146c33,40 79,101 101,134c85,123 175,195 317,254l82,34l-105,-6c-108,-6 -402,10 -454,24c-48,13 -40,28 21,41c84,17 418,25 553,13c63,-6 116,-9 118,-8c2,2 -31,29 -73,60c-144,109 -310,182 -479,212c-101,17 -327,17 -419,-1zm-502,-860c0,-28 -2,-30 -42,-31c-52,0 -85,-17 -106,-54c-23,-38 -22,-41 13,-23c63,31 120,-7 120,-80c0,-84 -56,-147 -131,-147c-81,0 -121,74 -99,180c26,122 102,194 200,188c43,-3 45,-5 45,-33zm234,20c52,-26 57,-91 11,-137l-30,-30l20,-25c24,-31 26,-80 4,-111c-60,-86 -224,-58 -224,38c0,32 25,74 54,90c24,13 25,15 11,36c-17,27 -20,77 -5,104c24,45 105,63 159,35zm341,-8c0,-12 -32,-71 -140,-254c-54,-91 -56,-93 -92,-93c-21,0 -38,5 -38,10c0,6 38,72 84,148l85,137l-75,3c-76,3 -83,8 -68,46c5,13 26,16 125,16c90,0 119,-3 119,-13z"/><path id="svg_3" fill="#081535" d="m1.139,1629.70231c-21,-23 -22,-75 -2,-92c20,-17 61,9 67,43c11,57 -30,88 -65,49z"/><path id="svg_4" fill="#081535" d="m298.139,1753.70231c-8,-34 1,-56 24,-56c49,0 57,73 10,78c-22,3 -29,-2 -34,-22z"/><path id="svg_5" fill="#081535" d="m281.139,1616.70231c-47,-27 -37,-89 14,-89c41,0 59,38 35,75c-18,28 -23,29 -49,14z"/><path id="svg_6" fill="#081535" d="m1645.139,2291.70231c-124,-44 -189,-123 -206,-251l-7,-53l141,0l141,0l0,160c0,177 4,169 -69,144z"/><path id="svg_7" fill="#081535" d="m1469.139,2268.70231c-104,-38 -175,-82 -263,-165c-42,-39 -88,-103 -81,-111c7,-6 34,-7 150,-6l116,1l7,51c10,78 42,152 87,203c22,25 39,46 37,46c-1,-1 -25,-9 -53,-19z"/><path id="svg_8" fill="#081535" d="m1764.139,2120.70231l0,-133l75,0c51,0 75,4 75,12c0,16 -96,186 -125,223l-25,30l0,-132z"/><path id="svg_9" fill="#081535" d="m1821.139,1507.70231l-27,-89l-474,-3c-261,-2 -478,-7 -483,-11c-4,-5 -7,-55 -7,-110c3,-209 84,-411 233,-578c47,-53 167,-147 228,-179l41,-21l43,21l42,22l-79,42c-103,53 -170,103 -235,174c-46,51 -99,123 -99,137c0,2 183,6 407,7l406,3l47,82c53,92 115,268 125,356l7,57l-45,0l-46,0l-14,53c-9,28 -18,67 -22,84c-4,18 -10,35 -14,37c-4,3 -20,-35 -34,-84zm-497,-269c54,-39 48,-136 -11,-166c-48,-25 -87,-19 -125,19c-38,38 -43,70 -18,117c29,56 99,70 154,30z"/><path id="svg_10" fill="#081535" d="m1106.139,835.70231c60,-73 166,-155 264,-204l95,-47l57,39c60,41 252,226 252,244c0,7 -117,10 -351,10l-352,0l35,-42z"/></g></g></svg>